<svg xmlns="http://www.w3.org/2000/svg" xmlns:xlink="http://www.w3.org/1999/xlink" width="500" zoomAndPan="magnify" viewBox="0 0 375 374.999991" height="500" preserveAspectRatio="xMidYMid meet" version="1.0"><defs><g/><clipPath id="07a0ee5220"><path d="M 47.316406 193.960938 L 131.726562 193.960938 L 131.726562 206.332031 L 47.316406 206.332031 Z M 47.316406 193.960938 " clip-rule="nonzero"/></clipPath><clipPath id="5590cac483"><path d="M 47.316406 219.199219 L 131.726562 219.199219 L 131.726562 231.570312 L 47.316406 231.570312 Z M 47.316406 219.199219 " clip-rule="nonzero"/></clipPath><clipPath id="0b80717098"><path d="M 47.316406 243.941406 L 131.726562 243.941406 L 131.726562 256.3125 L 47.316406 256.3125 Z M 47.316406 243.941406 " clip-rule="nonzero"/></clipPath><clipPath id="dd25ca7dab"><path d="M 47.316406 268.683594 L 131.726562 268.683594 L 131.726562 281.054688 L 47.316406 281.054688 Z M 47.316406 268.683594 " clip-rule="nonzero"/></clipPath></defs><rect x="-37.5" width="450" fill="#ffffff" y="-37.499999" height="449.999989" fill-opacity="1"/><rect x="-37.5" width="450" fill="#000000" y="-37.499999" height="449.999989" fill-opacity="1"/><g fill="#ffffff" fill-opacity="1"><g transform="translate(56.885593, 286.125351)"><g><path d="M 249.320312 -189.957031 C 249.320312 -216.078125 227.949219 -237.445312 201.828125 -237.445312 L 11.871094 -237.445312 L 11.871094 0 L 59.363281 0 L 59.363281 -94.980469 L 87.261719 -94.980469 L 175.117188 -7.125 C 179.867188 -2.375 185.800781 0 192.332031 0 L 249.320312 0 L 249.320312 -47.488281 L 201.828125 -47.488281 L 154.339844 -94.980469 L 201.828125 -94.980469 C 227.949219 -94.980469 249.320312 -116.347656 249.320312 -142.46875 Z M 201.828125 -189.957031 L 201.828125 -142.46875 L 59.363281 -142.46875 L 59.363281 -189.957031 Z M 201.828125 -189.957031 "/></g></g></g><g clip-path="url(#07a0ee5220)"><path fill="#000000" d="M 47.316406 193.960938 L 131.742188 193.960938 L 131.742188 206.332031 L 47.316406 206.332031 Z M 47.316406 193.960938 " fill-opacity="1" fill-rule="nonzero"/></g><g clip-path="url(#5590cac483)"><path fill="#000000" d="M 47.316406 219.199219 L 131.742188 219.199219 L 131.742188 231.570312 L 47.316406 231.570312 Z M 47.316406 219.199219 " fill-opacity="1" fill-rule="nonzero"/></g><g clip-path="url(#0b80717098)"><path fill="#000000" d="M 47.316406 243.941406 L 131.742188 243.941406 L 131.742188 256.3125 L 47.316406 256.3125 Z M 47.316406 243.941406 " fill-opacity="1" fill-rule="nonzero"/></g><g clip-path="url(#dd25ca7dab)"><path fill="#000000" d="M 47.316406 268.683594 L 131.742188 268.683594 L 131.742188 281.054688 L 47.316406 281.054688 Z M 47.316406 268.683594 " fill-opacity="1" fill-rule="nonzero"/></g><g fill="#ffffff" fill-opacity="1"><g transform="translate(60.653574, 314.977111)"><g><path d="M 1.578125 -18.46875 L 14.5625 -18.46875 L 14.5625 -16.421875 L 9.1875 -16.421875 L 9.1875 0 L 6.96875 0 L 6.96875 -16.421875 L 1.578125 -16.421875 Z M 1.578125 -18.46875 "/></g></g></g><g fill="#ffffff" fill-opacity="1"><g transform="translate(82.242117, 314.977111)"><g><path d="M 2.484375 -18.46875 L 13.671875 -18.46875 L 13.671875 -16.421875 L 4.703125 -16.421875 L 4.703125 -10.296875 L 13.515625 -10.296875 L 13.515625 -8.234375 L 4.703125 -8.234375 L 4.703125 -2.0625 L 13.828125 -2.0625 L 13.828125 0 L 2.484375 0 Z M 2.484375 -18.46875 "/></g></g></g><g fill="#ffffff" fill-opacity="1"><g transform="translate(103.830659, 314.977111)"><g><path d="M 8.1875 -1.6875 C 8.9375 -1.6875 9.578125 -1.8125 10.109375 -2.0625 C 10.648438 -2.320312 11.09375 -2.664062 11.4375 -3.09375 C 11.78125 -3.53125 12.035156 -4.023438 12.203125 -4.578125 C 12.367188 -5.128906 12.453125 -5.710938 12.453125 -6.328125 L 12.453125 -6.65625 L 14.671875 -6.65625 L 14.671875 -6.328125 C 14.671875 -5.398438 14.53125 -4.523438 14.25 -3.703125 C 13.96875 -2.890625 13.550781 -2.175781 13 -1.5625 C 12.457031 -0.957031 11.78125 -0.484375 10.96875 -0.140625 C 10.164062 0.203125 9.238281 0.375 8.1875 0.375 C 6.144531 0.375 4.550781 -0.265625 3.40625 -1.546875 C 2.257812 -2.835938 1.6875 -4.710938 1.6875 -7.171875 L 1.6875 -11.296875 C 1.6875 -13.691406 2.257812 -15.546875 3.40625 -16.859375 C 4.550781 -18.179688 6.144531 -18.84375 8.1875 -18.84375 C 9.238281 -18.84375 10.164062 -18.671875 10.96875 -18.328125 C 11.78125 -17.984375 12.457031 -17.507812 13 -16.90625 C 13.550781 -16.300781 13.96875 -15.585938 14.25 -14.765625 C 14.53125 -13.941406 14.671875 -13.066406 14.671875 -12.140625 L 14.671875 -11.828125 L 12.453125 -11.828125 L 12.453125 -12.140625 C 12.441406 -12.734375 12.347656 -13.3125 12.171875 -13.875 C 12.003906 -14.4375 11.75 -14.929688 11.40625 -15.359375 C 11.070312 -15.796875 10.640625 -16.140625 10.109375 -16.390625 C 9.578125 -16.648438 8.9375 -16.78125 8.1875 -16.78125 C 6.757812 -16.78125 5.6875 -16.257812 4.96875 -15.21875 C 4.257812 -14.1875 3.90625 -12.828125 3.90625 -11.140625 L 3.90625 -7.34375 C 3.90625 -5.53125 4.257812 -4.132812 4.96875 -3.15625 C 5.6875 -2.175781 6.757812 -1.6875 8.1875 -1.6875 Z M 8.1875 -1.6875 "/></g></g></g><g fill="#ffffff" fill-opacity="1"><g transform="translate(125.419202, 314.977111)"><g><path d="M 1.921875 -18.46875 L 4.140625 -18.46875 L 4.140625 -10.296875 L 12 -10.296875 L 12 -18.46875 L 14.21875 -18.46875 L 14.21875 0 L 12 0 L 12 -8.234375 L 4.140625 -8.234375 L 4.140625 0 L 1.921875 0 Z M 1.921875 -18.46875 "/></g></g></g><g fill="#ffffff" fill-opacity="1"><g transform="translate(147.007744, 314.977111)"><g><path d="M 11.6875 -0.953125 L 12 -0.953125 L 12 -18.46875 L 14.21875 -18.46875 L 14.21875 0 L 9.796875 0 L 4.453125 -17.515625 L 4.140625 -17.515625 L 4.140625 0 L 1.921875 0 L 1.921875 -18.46875 L 6.359375 -18.46875 Z M 11.6875 -0.953125 "/></g></g></g><g fill="#ffffff" fill-opacity="1"><g transform="translate(168.596287, 314.977111)"><g><path d="M 1.578125 -11.296875 C 1.578125 -13.691406 2.148438 -15.546875 3.296875 -16.859375 C 4.441406 -18.179688 6.035156 -18.84375 8.078125 -18.84375 C 10.117188 -18.84375 11.707031 -18.179688 12.84375 -16.859375 C 13.988281 -15.546875 14.5625 -13.691406 14.5625 -11.296875 L 14.5625 -7.171875 C 14.5625 -4.710938 13.988281 -2.835938 12.84375 -1.546875 C 11.707031 -0.265625 10.117188 0.375 8.078125 0.375 C 6.035156 0.375 4.441406 -0.265625 3.296875 -1.546875 C 2.148438 -2.835938 1.578125 -4.710938 1.578125 -7.171875 Z M 8.078125 -1.6875 C 9.503906 -1.6875 10.570312 -2.175781 11.28125 -3.15625 C 11.988281 -4.132812 12.34375 -5.53125 12.34375 -7.34375 L 12.34375 -11.140625 C 12.34375 -12.828125 11.988281 -14.1875 11.28125 -15.21875 C 10.570312 -16.257812 9.503906 -16.78125 8.078125 -16.78125 C 6.648438 -16.78125 5.578125 -16.257812 4.859375 -15.21875 C 4.148438 -14.1875 3.796875 -12.828125 3.796875 -11.140625 L 3.796875 -7.34375 C 3.796875 -5.53125 4.148438 -4.132812 4.859375 -3.15625 C 5.578125 -2.175781 6.648438 -1.6875 8.078125 -1.6875 Z M 8.078125 -1.6875 "/></g></g></g><g fill="#ffffff" fill-opacity="1"><g transform="translate(190.184829, 314.977111)"><g><path d="M 2.296875 -18.46875 L 4.515625 -18.46875 L 4.515625 -2.0625 L 14.171875 -2.0625 L 14.171875 0 L 2.296875 0 Z M 2.296875 -18.46875 "/></g></g></g><g fill="#ffffff" fill-opacity="1"><g transform="translate(211.773372, 314.977111)"><g><path d="M 1.578125 -11.296875 C 1.578125 -13.691406 2.148438 -15.546875 3.296875 -16.859375 C 4.441406 -18.179688 6.035156 -18.84375 8.078125 -18.84375 C 10.117188 -18.84375 11.707031 -18.179688 12.84375 -16.859375 C 13.988281 -15.546875 14.5625 -13.691406 14.5625 -11.296875 L 14.5625 -7.171875 C 14.5625 -4.710938 13.988281 -2.835938 12.84375 -1.546875 C 11.707031 -0.265625 10.117188 0.375 8.078125 0.375 C 6.035156 0.375 4.441406 -0.265625 3.296875 -1.546875 C 2.148438 -2.835938 1.578125 -4.710938 1.578125 -7.171875 Z M 8.078125 -1.6875 C 9.503906 -1.6875 10.570312 -2.175781 11.28125 -3.15625 C 11.988281 -4.132812 12.34375 -5.53125 12.34375 -7.34375 L 12.34375 -11.140625 C 12.34375 -12.828125 11.988281 -14.1875 11.28125 -15.21875 C 10.570312 -16.257812 9.503906 -16.78125 8.078125 -16.78125 C 6.648438 -16.78125 5.578125 -16.257812 4.859375 -15.21875 C 4.148438 -14.1875 3.796875 -12.828125 3.796875 -11.140625 L 3.796875 -7.34375 C 3.796875 -5.53125 4.148438 -4.132812 4.859375 -3.15625 C 5.578125 -2.175781 6.648438 -1.6875 8.078125 -1.6875 Z M 8.078125 -1.6875 "/></g></g></g><g fill="#ffffff" fill-opacity="1"><g transform="translate(233.361914, 314.977111)"><g><path d="M 6.3125 -8.875 L 14.546875 -8.875 L 14.546875 0 L 12.484375 0 L 12.484375 -2.21875 L 12.171875 -2.21875 C 11.867188 -1.445312 11.335938 -0.820312 10.578125 -0.34375 C 9.828125 0.132812 8.945312 0.375 7.9375 0.375 C 5.957031 0.375 4.398438 -0.265625 3.265625 -1.546875 C 2.128906 -2.835938 1.5625 -4.710938 1.5625 -7.171875 L 1.5625 -11.296875 C 1.5625 -13.691406 2.128906 -15.546875 3.265625 -16.859375 C 4.410156 -18.179688 6.003906 -18.84375 8.046875 -18.84375 C 9.097656 -18.84375 10.03125 -18.671875 10.84375 -18.328125 C 11.65625 -17.984375 12.332031 -17.507812 12.875 -16.90625 C 13.425781 -16.300781 13.84375 -15.585938 14.125 -14.765625 C 14.40625 -13.941406 14.546875 -13.066406 14.546875 -12.140625 L 14.546875 -11.828125 L 12.328125 -11.828125 L 12.328125 -12.140625 C 12.328125 -12.734375 12.242188 -13.3125 12.078125 -13.875 C 11.910156 -14.4375 11.65625 -14.929688 11.3125 -15.359375 C 10.96875 -15.796875 10.523438 -16.140625 9.984375 -16.390625 C 9.453125 -16.648438 8.804688 -16.78125 8.046875 -16.78125 C 6.617188 -16.78125 5.550781 -16.257812 4.84375 -15.21875 C 4.132812 -14.1875 3.78125 -12.828125 3.78125 -11.140625 L 3.78125 -7.34375 C 3.78125 -5.53125 4.132812 -4.132812 4.84375 -3.15625 C 5.550781 -2.175781 6.640625 -1.6875 8.109375 -1.6875 C 9.421875 -1.6875 10.453125 -2.109375 11.203125 -2.953125 C 11.953125 -3.796875 12.328125 -4.972656 12.328125 -6.484375 L 12.328125 -6.8125 L 6.3125 -6.8125 Z M 6.3125 -8.875 "/></g></g></g><g fill="#ffffff" fill-opacity="1"><g transform="translate(254.950457, 314.977111)"><g><path d="M 2.21875 -18.46875 L 13.9375 -18.46875 L 13.9375 -16.421875 L 9.1875 -16.421875 L 9.1875 -2.0625 L 13.9375 -2.0625 L 13.9375 0 L 2.21875 0 L 2.21875 -2.0625 L 6.96875 -2.0625 L 6.96875 -16.421875 L 2.21875 -16.421875 Z M 2.21875 -18.46875 "/></g></g></g><g fill="#ffffff" fill-opacity="1"><g transform="translate(276.539, 314.977111)"><g><path d="M 2.484375 -18.46875 L 13.671875 -18.46875 L 13.671875 -16.421875 L 4.703125 -16.421875 L 4.703125 -10.296875 L 13.515625 -10.296875 L 13.515625 -8.234375 L 4.703125 -8.234375 L 4.703125 -2.0625 L 13.828125 -2.0625 L 13.828125 0 L 2.484375 0 Z M 2.484375 -18.46875 "/></g></g></g><g fill="#ffffff" fill-opacity="1"><g transform="translate(298.127542, 314.977111)"><g><path d="M 12.4375 -13.140625 C 12.4375 -13.742188 12.316406 -14.269531 12.078125 -14.71875 C 11.835938 -15.175781 11.515625 -15.554688 11.109375 -15.859375 C 10.703125 -16.160156 10.234375 -16.390625 9.703125 -16.546875 C 9.179688 -16.703125 8.628906 -16.78125 8.046875 -16.78125 C 7.535156 -16.78125 7.050781 -16.710938 6.59375 -16.578125 C 6.132812 -16.453125 5.722656 -16.265625 5.359375 -16.015625 C 5.003906 -15.773438 4.722656 -15.472656 4.515625 -15.109375 C 4.304688 -14.742188 4.203125 -14.328125 4.203125 -13.859375 L 4.203125 -13.703125 C 4.203125 -13.191406 4.304688 -12.753906 4.515625 -12.390625 C 4.722656 -12.023438 5.03125 -11.710938 5.4375 -11.453125 C 5.851562 -11.203125 6.367188 -10.992188 6.984375 -10.828125 C 7.609375 -10.660156 8.332031 -10.515625 9.15625 -10.390625 C 11.09375 -10.097656 12.519531 -9.53125 13.4375 -8.6875 C 14.351562 -7.851562 14.8125 -6.734375 14.8125 -5.328125 L 14.8125 -5.015625 C 14.8125 -4.222656 14.671875 -3.492188 14.390625 -2.828125 C 14.117188 -2.171875 13.710938 -1.601562 13.171875 -1.125 C 12.640625 -0.65625 11.976562 -0.285156 11.1875 -0.015625 C 10.394531 0.242188 9.476562 0.375 8.4375 0.375 C 7.257812 0.375 6.21875 0.203125 5.3125 -0.140625 C 4.40625 -0.484375 3.648438 -0.957031 3.046875 -1.5625 C 2.441406 -2.175781 1.976562 -2.890625 1.65625 -3.703125 C 1.34375 -4.523438 1.1875 -5.421875 1.1875 -6.390625 L 1.1875 -7.171875 L 3.40625 -7.171875 L 3.40625 -6.546875 C 3.40625 -4.921875 3.847656 -3.703125 4.734375 -2.890625 C 5.617188 -2.085938 6.851562 -1.6875 8.4375 -1.6875 C 9.8125 -1.6875 10.847656 -1.988281 11.546875 -2.59375 C 12.242188 -3.207031 12.59375 -4.015625 12.59375 -5.015625 L 12.59375 -5.171875 C 12.59375 -6.140625 12.234375 -6.878906 11.515625 -7.390625 C 10.804688 -7.898438 9.648438 -8.269531 8.046875 -8.5 C 7.117188 -8.625 6.28125 -8.8125 5.53125 -9.0625 C 4.78125 -9.320312 4.140625 -9.65625 3.609375 -10.0625 C 3.085938 -10.476562 2.6875 -10.976562 2.40625 -11.5625 C 2.125 -12.144531 1.984375 -12.832031 1.984375 -13.625 L 1.984375 -13.9375 C 1.984375 -14.65625 2.128906 -15.3125 2.421875 -15.90625 C 2.722656 -16.507812 3.140625 -17.03125 3.671875 -17.46875 C 4.210938 -17.90625 4.859375 -18.242188 5.609375 -18.484375 C 6.359375 -18.722656 7.179688 -18.84375 8.078125 -18.84375 C 9.109375 -18.84375 10.035156 -18.691406 10.859375 -18.390625 C 11.679688 -18.097656 12.375 -17.695312 12.9375 -17.1875 C 13.5 -16.6875 13.921875 -16.097656 14.203125 -15.421875 C 14.492188 -14.742188 14.640625 -14.035156 14.640625 -13.296875 L 14.640625 -12.1875 L 12.4375 -12.1875 Z M 12.4375 -13.140625 "/></g></g></g></svg>